<?xml version="1.0" encoding="UTF-8"?>
<svg xmlns="http://www.w3.org/2000/svg" xmlns:xlink="http://www.w3.org/1999/xlink" width="128px" height="128px" viewBox="0 0 128 128" version="1.1">
<g id="surface1">
<path style=" stroke:none;fill-rule:nonzero;fill:rgb(0%,0%,0%);fill-opacity:1;" d="M 39.773438 80.726562 L 39.773438 75.996094 C 39.773438 73.773438 38.226562 71.773438 36 71.773438 C 33.78125 71.773438 32.226562 73.554688 32.226562 75.773438 L 32 80.726562 C 26.5 82.695312 23.1875 88.320312 24.1875 94.070312 C 25.148438 99.851562 30.148438 104.023438 36 104.023438 C 41.84375 104.023438 46.84375 99.847656 47.8125 94.066406 C 48.800781 88.324219 45.273438 82.699219 39.773438 80.726562 Z M 63.773438 28 C 63.773438 12.53125 51.476562 0 36 0 C 20.53125 0 8 12.53125 8 28 L 8 69.625 C 3.0625 75.824219 0 83.5 0 92 C 0 111.875 16.125 128 36 128 C 55.875 128 71.773438 111.875 71.773438 92 C 71.773438 83.5 68.710938 75.78125 63.773438 69.625 Z M 54.976562 98.351562 C 52.023438 106.523438 44.601562 111.773438 36 111.773438 C 27.40625 111.773438 19.75 106.316406 17.03125 98.128906 C 14.3125 90.199219 17.125 81.226562 24 76.074219 L 24 28 C 24 21.375 29.375 16 36 16 C 42.625 16 47.773438 21.375 47.773438 28 L 47.773438 76.074219 C 54.875 81.226562 57.675781 90.199219 54.976562 98.351562 Z M 124.773438 85.75 C 121.332031 82.992188 116.296875 83.5625 113.53125 87 L 112 89.199219 L 112 16 C 112 11.578125 108.417969 8 104 8 C 99.582031 8 96 11.578125 96 16 L 96 89.199219 L 94.023438 87 C 91.265625 83.546875 86.226562 82.992188 82.78125 85.75 C 79.328125 88.515625 78.769531 93.546875 81.53125 97 L 97.53125 117 C 99.273438 118.898438 101.574219 120 104 120 C 106.425781 120 108.730469 118.898438 110.246094 117 L 126.246094 97 C 129 93.550781 128.449219 88.523438 124.773438 85.75 Z M 124.773438 85.75 "/>
</g>
</svg>
